# xmcd CD database file
#
# Track frame offsets:
#	150
#	17859
#	43697
#	64558
#	86260
#	104487
#	122941
#	128607
#	150284
#	161207
#	180053
#
# Disc length: 2637 seconds
#
# Revision: 0
# Processed by: cddbd v1.5.2PL0 Copyright (c) Steve Scherf et al.
# Submitted via: CDex 1.70beta2
#
DISCID=7e0a4b0b
DTITLE=天地雅楽 - 天壌無窮 -Heaven and Earth Forever-
DYEAR=2010
DGENRE=New Age
TTITLE0=Spiral Staircase
TTITLE1=天界への階段 -Stairs to Heaven-
TTITLE2=Meditation -interlude-
TTITLE3=Continent of Spring
TTITLE4=故郷の砂 -Sand of Hometown-
TTITLE5=故郷の風 -Wind of Hometown-
TTITLE6=開扉 -interlude-
TTITLE7=寺の小道 -Temple's Alley-
TTITLE8=とおりゃんせ
TTITLE9=Yellow River
TTITLE10=天地乃響 -Echoes of Heaven and Earth-
EXTD=YEAR: 2010
EXTT0=
EXTT1=
EXTT2=
EXTT3=
EXTT4=
EXTT5=
EXTT6=
EXTT7=
EXTT8=
EXTT9=
EXTT10=
PLAYORDER=
